<svg xmlns="http://www.w3.org/2000/svg" width="900" height="760" viewBox="0 0 900 760" role="img" aria-labelledby="title desc">
  <title id="title">Абстрактная библиотека гайдов</title>
  <desc id="desc">Светлая композиция из карточек, окна текста и интерфейсных элементов</desc>
  <defs>
    <linearGradient id="bg" x1="0" y1="0" x2="1" y2="1"><stop stop-color="#eef4ff"/><stop offset="1" stop-color="#f4fff9"/></linearGradient>
    <linearGradient id="blue" x1="0" y1="0" x2="1" y2="1"><stop stop-color="#2563eb"/><stop offset="1" stop-color="#12b886"/></linearGradient>
    <filter id="shadow" x="-20%" y="-20%" width="140%" height="140%"><feDropShadow dx="0" dy="28" stdDeviation="30" flood-color="#2a344e" flood-opacity=".16"/></filter>
  </defs>
  <rect width="900" height="760" rx="36" fill="url(#bg)"/>
  <circle cx="722" cy="116" r="116" fill="#fff" opacity=".55"/>
  <circle cx="150" cy="620" r="145" fill="#d9fbe8" opacity=".7"/>
  <g filter="url(#shadow)">
    <rect x="96" y="116" width="500" height="350" rx="30" fill="#fff"/>
    <rect x="126" y="150" width="160" height="18" rx="9" fill="#172033"/>
    <rect x="126" y="198" width="410" height="18" rx="9" fill="#d8e1ee"/>
    <rect x="126" y="230" width="350" height="18" rx="9" fill="#e6edf7"/>
    <rect x="126" y="284" width="156" height="118" rx="22" fill="#eef4ff"/>
    <rect x="308" y="284" width="226" height="118" rx="22" fill="#f3fbf6"/>
    <path d="M148 360l42-46 34 32 30-24 42 38" fill="none" stroke="url(#blue)" stroke-width="12" stroke-linecap="round" stroke-linejoin="round"/>
  </g>
  <g filter="url(#shadow)">
    <rect x="420" y="332" width="354" height="262" rx="30" fill="#fff"/>
    <rect x="456" y="368" width="196" height="18" rx="9" fill="#172033"/>
    <rect x="456" y="418" width="268" height="14" rx="7" fill="#d8e1ee"/>
    <rect x="456" y="446" width="224" height="14" rx="7" fill="#e6edf7"/>
    <rect x="456" y="496" width="100" height="42" rx="21" fill="url(#blue)"/>
    <rect x="578" y="496" width="96" height="42" rx="21" fill="#eef4ff"/>
  </g>
  <g filter="url(#shadow)">
    <rect x="612" y="186" width="150" height="118" rx="28" fill="#172033"/>
    <circle cx="650" cy="224" r="14" fill="#12b886"/>
    <rect x="634" y="256" width="94" height="12" rx="6" fill="#dce8ff" opacity=".75"/>
  </g>
</svg>
