<svg xmlns="http://www.w3.org/2000/svg" width="520" height="420" viewBox="0 0 520 420"><rect width="520" height="420" rx="28" fill="#f2fbf7"/><g fill="#fff"><rect x="42" y="70" width="122" height="260" rx="22"/><rect x="199" y="70" width="122" height="260" rx="22"/><rect x="356" y="70" width="122" height="260" rx="22"/></g><g fill="#172033"><rect x="72" y="108" width="62" height="12" rx="6"/><rect x="229" y="108" width="62" height="12" rx="6"/><rect x="386" y="108" width="62" height="12" rx="6"/></g><g fill="#d8e1ee"><rect x="72" y="154" width="72" height="12" rx="6"/><rect x="229" y="154" width="72" height="12" rx="6"/><rect x="386" y="154" width="72" height="12" rx="6"/><rect x="72" y="188" width="54" height="12" rx="6"/><rect x="229" y="188" width="54" height="12" rx="6"/><rect x="386" y="188" width="54" height="12" rx="6"/></g><circle cx="103" cy="268" r="28" fill="#2563eb"/><circle cx="260" cy="268" r="28" fill="#12b886"/><circle cx="417" cy="268" r="28" fill="#ffb86c"/></svg>
